<?xml version="1.0" standalone="no"?>
<!DOCTYPE svg PUBLIC "-//W3C//DTD SVG 20010904//EN"
 "http://www.w3.org/TR/2001/REC-SVG-20010904/DTD/svg10.dtd">
<svg version="1.0" xmlns="http://www.w3.org/2000/svg"
 width="64.000000pt" height="64.000000pt" viewBox="0 0 64.000000 64.000000"
 preserveAspectRatio="xMidYMid meet">

<g transform="translate(0.000000,64.000000) scale(0.100000,-0.100000)"
fill="#000000" stroke="none">
<path d="M77 494 c-4 -4 -7 -22 -7 -40 0 -26 -4 -33 -22 -36 -22 -3 -23 -8
-23 -78 0 -70 2 -75 22 -78 17 -3 23 -11 25 -40 3 -37 3 -37 48 -37 l45 0 3
53 c2 28 7 52 12 52 4 0 18 -15 29 -33 19 -30 19 -40 11 -126 -6 -51 -8 -97
-4 -102 7 -12 171 -12 179 0 3 5 1 51 -5 103 l-11 92 38 33 c21 18 41 32 45
33 4 0 8 -24 10 -52 l3 -53 45 0 c45 0 45 0 48 37 2 29 8 37 25 40 20 3 22 8
22 78 0 70 -2 75 -22 78 -17 3 -23 11 -25 40 -3 37 -3 37 -48 37 l-45 0 -3
-52 c-2 -38 -7 -53 -18 -53 -7 0 -14 4 -14 10 0 5 -18 21 -40 35 -36 23 -50
25 -118 23 l-77 -3 -3 -32 c-5 -56 -30 -41 -34 20 l-3 52 -40 3 c-23 2 -44 0
-48 -4z m73 -154 l0 -140 -30 0 -30 0 0 140 0 140 30 0 30 0 0 -140z m400 0
l0 -140 -30 0 -30 0 0 140 0 140 30 0 30 0 0 -140z m-310 60 c0 -22 -4 -40
-10 -40 -5 0 -10 18 -10 40 0 22 5 40 10 40 6 0 10 -18 10 -40z m40 0 c0 -22
-4 -40 -10 -40 -5 0 -10 18 -10 40 0 22 5 40 10 40 6 0 10 -18 10 -40z m40 0
c0 -22 -4 -40 -10 -40 -5 0 -10 18 -10 40 0 22 5 40 10 40 6 0 10 -18 10 -40z
m40 0 c0 -22 -4 -40 -10 -40 -5 0 -10 18 -10 40 0 22 5 40 10 40 6 0 10 -18
10 -40z m52 3 c13 -11 18 -30 18 -64 0 -43 -4 -51 -36 -75 -35 -28 -36 -28
-29 -88 3 -34 8 -78 11 -98 l6 -38 -77 0 -76 0 5 42 c17 137 17 149 1 170 -8
13 -15 26 -15 30 0 5 35 8 78 8 47 0 83 5 90 12 15 15 16 74 2 83 -11 7 -14
35 -3 35 3 0 15 -7 25 -17z m-342 -63 c0 -47 -3 -60 -15 -60 -12 0 -15 13 -15
60 0 47 3 60 15 60 12 0 15 -13 15 -60z m530 0 c0 -47 -3 -60 -15 -60 -12 0
-15 13 -15 60 0 47 3 60 15 60 12 0 15 -13 15 -60z m-396 14 c5 -13 21 -15 91
-12 72 2 85 1 83 -12 -3 -12 -24 -16 -106 -18 l-102 -3 0 31 c0 32 23 42 34
14z m266 -14 c0 -16 -4 -30 -10 -30 -5 0 -10 14 -10 30 0 17 5 30 10 30 6 0
10 -13 10 -30z"/>
</g>
</svg>
